<svg xmlns="http://www.w3.org/2000/svg" width="13" height="12" viewBox="0 0 13 12" fill="none">
  <path d="M9.96387 6.35646L11.4276 7.82016M6.48828 11.2966H7.95199L11.7942 7.45435C11.8903 7.35824 11.9666 7.24414 12.0186 7.11857C12.0706 6.993 12.0974 6.85841 12.0974 6.7225C12.0974 6.58658 12.0706 6.45199 12.0186 6.32642C11.9666 6.20085 11.8903 6.08675 11.7942 5.99064C11.6981 5.89454 11.584 5.8183 11.4584 5.76628C11.3329 5.71427 11.1983 5.6875 11.0624 5.6875C10.9264 5.6875 10.7919 5.71427 10.6663 5.76628C10.5407 5.8183 10.4266 5.89454 10.3305 5.99064L6.48828 9.83287V11.2966Z" stroke="currentColor" stroke-width="0.9" stroke-linecap="round" stroke-linejoin="round"/>
  <path d="M5.94001 1.29688V3.49243C5.94001 3.63801 5.99784 3.77762 6.10077 3.88056C6.20371 3.98349 6.34332 4.04132 6.4889 4.04132H8.68445M5.94001 1.29688H2.09778C1.80663 1.29688 1.52741 1.41253 1.32153 1.61841C1.11566 1.82428 1 2.1035 1 2.39465V10.0791C1 10.3703 1.11566 10.6495 1.32153 10.8554C1.52741 11.0612 1.80663 11.1769 2.09778 11.1769H5.11667M5.94001 1.29688L8.68445 4.04132M8.68445 4.04132V5.68799" stroke="currentColor" stroke-width="0.9" stroke-linecap="round" stroke-linejoin="round"/>
</svg>