<svg xmlns="http://www.w3.org/2000/svg" width="24" height="24" viewBox="0 0 24 24" fill="none">
  <path d="M17.9978 24C19.5891 24 21.1152 23.3679 22.2404 22.2426C23.3656 21.1174 23.9978 19.5913 23.9978 18C23.9978 16.4087 23.3656 14.8826 22.2404 13.7574C21.1152 12.6321 19.5891 12 17.9978 12C16.4065 12 14.8803 12.6321 13.7551 13.7574C12.6299 14.8826 11.9978 16.4087 11.9978 18C11.9978 19.5913 12.6299 21.1174 13.7551 22.2426C14.8803 23.3679 16.4065 24 17.9978 24ZM18.8549 15.4286V17.1429H20.5692C20.7965 17.1429 21.0145 17.2332 21.1753 17.3939C21.336 17.5547 21.4263 17.7727 21.4263 18C21.4263 18.2273 21.336 18.4453 21.1753 18.6061C21.0145 18.7668 20.7965 18.8571 20.5692 18.8571H18.8549V20.5714C18.8549 20.7988 18.7646 21.0168 18.6039 21.1775C18.4431 21.3383 18.2251 21.4286 17.9978 21.4286C17.7704 21.4286 17.5524 21.3383 17.3917 21.1775C17.2309 21.0168 17.1406 20.7988 17.1406 20.5714V18.8571H15.4263C15.199 18.8571 14.981 18.7668 14.8202 18.6061C14.6595 18.4453 14.5692 18.2273 14.5692 18C14.5692 17.7727 14.6595 17.5547 14.8202 17.3939C14.981 17.2332 15.199 17.1429 15.4263 17.1429H17.1406V15.4286C17.1406 15.2012 17.2309 14.9832 17.3917 14.8225C17.5524 14.6617 17.7704 14.5714 17.9978 14.5714C18.2251 14.5714 18.4431 14.6617 18.6039 14.8225C18.7646 14.9832 18.8549 15.2012 18.8549 15.4286ZM15.4263 5.14286C15.4263 6.50683 14.8845 7.81493 13.92 8.77941C12.9556 9.74388 11.6475 10.2857 10.2835 10.2857C8.91951 10.2857 7.61141 9.74388 6.64693 8.77941C5.68246 7.81493 5.14062 6.50683 5.14062 5.14286C5.14062 3.77889 5.68246 2.47078 6.64693 1.50631C7.61141 0.541835 8.91951 0 10.2835 0C11.6475 0 12.9556 0.541835 13.92 1.50631C14.8845 2.47078 15.4263 3.77889 15.4263 5.14286ZM10.2835 8.57143C11.1928 8.57143 12.0649 8.21021 12.7078 7.56722C13.3508 6.92424 13.7121 6.05217 13.7121 5.14286C13.7121 4.23354 13.3508 3.36147 12.7078 2.71849C12.0649 2.07551 11.1928 1.71429 10.2835 1.71429C9.37417 1.71429 8.5021 2.07551 7.85912 2.71849C7.21613 3.36147 6.85491 4.23354 6.85491 5.14286C6.85491 6.05217 7.21613 6.92424 7.85912 7.56722C8.5021 8.21021 9.37417 8.57143 10.2835 8.57143Z" 
  fill="currentColor"/>
  <path d="M10.7246 20.5714C10.5279 20.0147 10.3962 19.4372 10.332 18.8503H1.71429C1.716 18.4286 1.97829 17.16 3.14057 15.9977C4.25829 14.88 6.36171 13.7143 10.2857 13.7143C10.7314 13.7143 11.1549 13.7297 11.5543 13.7571C11.9417 13.1726 12.4046 12.6429 12.9326 12.1834C12.132 12.0651 11.2526 12 10.2857 12C1.71429 12 0 17.1429 0 18.8571C0 20.5714 1.71429 20.5714 1.71429 20.5714H10.7246Z" 
  fill="currentColor"/>
</svg>