<svg xmlns="http://www.w3.org/2000/svg" stroke-width="1" width="16" height="16" viewBox="0 0 16 16" fill="none">
  <path
    d="M8 16C3.83225 15.1018 0.5 11.2887 0.5 7.27273V2.90909L8 0L15.5 2.90909V7.27273C15.5 11.2902 12.1678 15.1018 8 16ZM2 3.63636V7.27273C2.04286 8.95428 2.65277 10.5759 3.73638 11.8894C4.82 13.2028 6.31761 14.1358 8 14.5455C9.68239 14.1358 11.18 13.2028 12.2636 11.8894C13.3472 10.5759 13.9571 8.95428 14 7.27273V3.63636L8 1.45455L2 3.63636Z"
    fill="currentColor" stroke-width="1" />
  <path
    d="M8 7.27273C9.03553 7.27273 9.875 6.4587 9.875 5.45455C9.875 4.45039 9.03553 3.63636 8 3.63636C6.96447 3.63636 6.125 4.45039 6.125 5.45455C6.125 6.4587 6.96447 7.27273 8 7.27273Z"
    fill="currentColor" stroke-width="1" />
  <path
    d="M4.25 10.1818C4.61955 10.8352 5.16155 11.3815 5.82048 11.7649C6.47942 12.1483 7.23161 12.3549 8 12.3636C8.76839 12.3549 9.52058 12.1483 10.1795 11.7649C10.8385 11.3815 11.3805 10.8352 11.75 10.1818C11.7312 8.80291 9.2435 8 8 8C6.74975 8 4.26875 8.80291 4.25 10.1818Z"
    fill="currentColor" stroke-width="1" />
</svg>