<svg xmlns="http://www.w3.org/2000/svg" width="28" height="8" viewBox="0 0 28 8" fill="none">
  <path d="M1 3.5C0.723858 3.5 0.5 3.72386 0.5 4C0.5 4.27614 0.723858 4.5 1 4.5V3.5ZM27.3584 4.35355C27.5536 4.15829 27.5536 3.84171 27.3584 3.64645L24.1764 0.464466C23.9811 0.269204 23.6645 0.269204 23.4693 0.464466C23.274 0.659728 23.274 0.976311 23.4693 1.17157L26.2977 4L23.4693 6.82843C23.274 7.02369 23.274 7.34027 23.4693 7.53553C23.6645 7.7308 23.9811 7.7308 24.1764 7.53553L27.3584 4.35355ZM1 4.5H27.0048V3.5H1V4.5Z" fill="currentColor"/>
</svg>