<svg xmlns="http://www.w3.org/2000/svg" width="17" height="18" viewBox="0 0 17 18" fill="currentColor">
  <rect x="0.5" y="1" width="16" height="16" rx="8" fill="#5768D5" stroke="#5768D5"/>
  <path d="M7.37768 12.8399C7.28837 12.84 7.19993 12.8224 7.11742 12.7882C7.03492 12.7541 6.95998 12.7039 6.89692 12.6407L4.28572 10.0295C4.22077 9.96673 4.16897 9.89169 4.13333 9.80873C4.09769 9.72577 4.07894 9.63654 4.07815 9.54625C4.07737 9.45596 4.09457 9.36642 4.12876 9.28285C4.16295 9.19928 4.21345 9.12336 4.27729 9.05951C4.34114 8.99566 4.41706 8.94517 4.50063 8.91098C4.5842 8.87679 4.67374 8.85958 4.76403 8.86037C4.85432 8.86115 4.94355 8.87991 5.02652 8.91555C5.10948 8.95119 5.18451 9.00299 5.24724 9.06794L7.37768 11.1984L12.4457 6.13034C12.574 6.00647 12.7457 5.93793 12.924 5.93948C13.1023 5.94103 13.2729 6.01254 13.399 6.13862C13.525 6.2647 13.5965 6.43525 13.5981 6.61354C13.5996 6.79184 13.5311 6.96361 13.4072 7.09186L7.85844 12.6407C7.79538 12.7039 7.72044 12.7541 7.63794 12.7882C7.55544 12.8224 7.46699 12.84 7.37768 12.8399Z" 
  fill="white"/>
</svg>