<svg xmlns="http://www.w3.org/2000/svg" width="15" height="16" viewBox="0 0 15 16" fill="currentcolor">
  <g clip-path="url(#clip0_714_12451)">
    <path d="M7.5 0.900391C8.18848 0.900391 8.85254 0.988281 9.49219 1.16406C10.1318 1.33984 10.7275 1.59375 11.2793 1.92578C11.8311 2.25781 12.3364 2.64844 12.7954 3.09766C13.2544 3.54688 13.6475 4.05225 13.9746 4.61377C14.3018 5.17529 14.5532 5.77344 14.729 6.4082C14.9048 7.04297 14.9951 7.70703 15 8.40039C15 9.08887 14.9121 9.75293 14.7363 10.3926C14.5605 11.0322 14.3066 11.6279 13.9746 12.1797C13.6426 12.7314 13.252 13.2368 12.8027 13.6958C12.3535 14.1548 11.8481 14.5479 11.2866 14.875C10.7251 15.2021 10.127 15.4536 9.49219 15.6294C8.85742 15.8052 8.19336 15.8955 7.5 15.9004C6.81152 15.9004 6.14746 15.8125 5.50781 15.6367C4.86816 15.4609 4.27246 15.207 3.7207 14.875C3.16895 14.543 2.66357 14.1523 2.20459 13.7031C1.74561 13.2539 1.35254 12.7485 1.02539 12.187C0.698242 11.6255 0.446777 11.0273 0.270996 10.3926C0.0952148 9.75781 0.00488281 9.09375 0 8.40039C0 7.71191 0.0878906 7.04785 0.263672 6.4082C0.439453 5.76855 0.693359 5.17285 1.02539 4.62109C1.35742 4.06934 1.74805 3.56396 2.19727 3.10498C2.64648 2.646 3.15186 2.25293 3.71338 1.92578C4.2749 1.59863 4.87305 1.34717 5.50781 1.17139C6.14258 0.995605 6.80664 0.905273 7.5 0.900391ZM11.9165 5.91748L10.9204 4.92139L6.09375 9.74805L4.07959 7.73389L3.0835 8.72998L6.09375 11.7402L11.9165 5.91748Z" 
    fill="currentcolor"/>
  </g>
  <defs>
    <clipPath id="clip0_714_12451">
      <rect width="15" height="15" fill="white" transform="translate(0 0.900391)"/>
    </clipPath>
  </defs>
</svg>