<svg xmlns="http://www.w3.org/2000/svg" width="18" height="16" viewBox="0 0 18 16" fill="none">
  <path d="M7.2264 1.38848C7.78065 1.1327 8.38648 1 9 1C9.61352 1 10.2194 1.1327 10.7736 1.38848L16.1264 3.82837C17.2912 4.35881 17.2912 6.19592 16.1264 6.72637L10.7744 9.16626C10.22 9.42216 9.61407 9.55492 9.0004 9.55492C8.38673 9.55492 7.78075 9.42216 7.2264 9.16626L1.8736 6.72637C0.7088 6.19592 0.7088 4.35881 1.8736 3.82837L7.2264 1.38848Z" 
  stroke="currentColor" stroke-width="1.2"/>
  <path d="M1 5.27734V9.55512M14.6 7.61068V11.5968C14.6 12.3808 14.1976 13.115 13.492 13.4946C12.3168 14.1285 10.4368 14.9996 9 14.9996C7.5632 14.9996 5.6832 14.1277 4.508 13.4953C3.8032 13.115 3.4 12.3808 3.4 11.5976V7.61068" 
  stroke="currentColor" stroke-width="1.2" stroke-linecap="round"/>
</svg>