<svg xmlns="http://www.w3.org/2000/svg" width="28" height="31" viewBox="0 0 28 31" fill="none">
  <path d="M16.4348 4.86957C16.4348 4.06238 16.1141 3.28826 15.5434 2.7175C14.9726 2.14674 14.1985 1.82609 13.3913 1.82609C12.5841 1.82609 11.81 2.14674 11.2392 2.7175C10.6685 3.28826 10.3478 4.06238 10.3478 4.86957H16.4348ZM8.52174 4.86957C8.52174 3.57808 9.03478 2.33948 9.948 1.42626C10.8612 0.513042 12.0998 0 13.3913 0C14.6828 0 15.9214 0.513042 16.8346 1.42626C17.7478 2.33948 18.2609 3.57808 18.2609 4.86957H25.8696C26.1117 4.86957 26.344 4.96576 26.5152 5.13699C26.6864 5.30822 26.7826 5.54045 26.7826 5.78261C26.7826 6.02476 26.6864 6.257 26.5152 6.42823C26.344 6.59946 26.1117 6.69565 25.8696 6.69565H24.2748L23.6563 14.1157C23.0817 13.8708 22.4832 13.6864 21.8704 13.5654L22.4426 6.69565H4.34L5.80939 24.321C5.87901 25.1579 6.26058 25.938 6.87844 26.5067C7.49629 27.0754 8.30531 27.3911 9.14504 27.3913H12.3626C12.7866 28.0634 13.2965 28.6773 13.8795 29.2174H9.14504C7.84729 29.2173 6.59697 28.7295 5.642 27.8508C4.68704 26.972 4.09718 25.7665 3.98939 24.4732L2.50783 6.69565H0.913043C0.670889 6.69565 0.438653 6.59946 0.267424 6.42823C0.0961953 6.257 0 6.02476 0 5.78261C0 5.54045 0.0961953 5.30822 0.267424 5.13699C0.438653 4.96576 0.670889 4.86957 0.913043 4.86957H8.52174ZM28 22.5217C28 24.6204 27.1663 26.6331 25.6823 28.1171C24.1983 29.6011 22.1856 30.4348 20.087 30.4348C17.9883 30.4348 15.9756 29.6011 14.4916 28.1171C13.0076 26.6331 12.1739 24.6204 12.1739 22.5217C12.1739 20.4231 13.0076 18.4104 14.4916 16.9264C15.9756 15.4424 17.9883 14.6087 20.087 14.6087C22.1856 14.6087 24.1983 15.4424 25.6823 16.9264C27.1663 18.4104 28 20.4231 28 22.5217ZM20.087 21.661L16.8657 18.4386C16.7514 18.3243 16.5964 18.2601 16.4348 18.2601C16.2731 18.2601 16.1181 18.3243 16.0038 18.4386C15.8895 18.5529 15.8253 18.7079 15.8253 18.8696C15.8253 19.0312 15.8895 19.1862 16.0038 19.3005L19.2263 22.5217L16.0038 25.743C15.8895 25.8573 15.8253 26.0123 15.8253 26.1739C15.8253 26.3356 15.8895 26.4906 16.0038 26.6049C16.1181 26.7192 16.2731 26.7834 16.4348 26.7834C16.5964 26.7834 16.7514 26.7192 16.8657 26.6049L20.087 23.3824L23.3082 26.6049C23.4225 26.7192 23.5775 26.7834 23.7391 26.7834C23.9008 26.7834 24.0558 26.7192 24.1701 26.6049C24.2844 26.4906 24.3486 26.3356 24.3486 26.1739C24.3486 26.0123 24.2844 25.8573 24.1701 25.743L20.9477 22.5217L24.1701 19.3005C24.2844 19.1862 24.3486 19.0312 24.3486 18.8696C24.3486 18.7079 24.2844 18.5529 24.1701 18.4386C24.0558 18.3243 23.9008 18.2601 23.7391 18.2601C23.5775 18.2601 23.4225 18.3243 23.3082 18.4386L20.087 21.661Z" fill="#FF4747"/>
</svg>