<svg xmlns="http://www.w3.org/2000/svg" width="15" height="18" viewBox="0 0 15 18" fill="#ee933e">
    <path d="M13.8158 14.7105C13.8158 14.8152 13.7742 14.9156 13.7002 14.9896C13.6261 15.0637 13.5257 15.1053 13.4211 15.1053H8.89579C8.66993 15.5385 8.38335 15.9373 8.04474 16.2895H13.4211C13.8398 16.2895 14.2414 16.1231 14.5375 15.827C14.8336 15.5309 15 15.1293 15 14.7105V6.68C14.9999 6.26127 14.8335 5.85972 14.5374 5.56368L9.93553 0.962632L9.89684 0.931053L9.86842 0.907368C9.81422 0.85597 9.75645 0.808482 9.69553 0.765263C9.67501 0.752729 9.65394 0.741138 9.63237 0.730526L9.59447 0.711579L9.555 0.688684C9.51237 0.664211 9.46895 0.638947 9.42395 0.62C9.26664 0.557514 9.1003 0.520728 8.93132 0.511053C8.91553 0.51 8.9 0.508158 8.88474 0.505526L8.82 0.5H3.94737C3.52861 0.5 3.12699 0.666353 2.83088 0.962463C2.53477 1.25857 2.36842 1.66018 2.36842 2.07895V7.99842C2.74837 7.84028 3.14596 7.72843 3.55263 7.66526V2.07895C3.55263 1.97426 3.59422 1.87385 3.66825 1.79983C3.74227 1.7258 3.84268 1.68421 3.94737 1.68421H8.68421V5.23684C8.68421 5.6556 8.85056 6.05722 9.14667 6.35333C9.44278 6.64944 9.84439 6.81579 10.2632 6.81579H13.8158V14.7105ZM9.86842 2.56921L12.93 5.63158H10.2632C10.1585 5.63158 10.0581 5.58999 9.98404 5.51596C9.91001 5.44194 9.86842 5.34153 9.86842 5.23684V2.56921ZM0 12.7368C-8.49684e-09 13.3071 0.112312 13.8717 0.330523 14.3985C0.548734 14.9253 0.868571 15.404 1.27177 15.8072C1.67497 16.2104 2.15365 16.5302 2.68045 16.7484C3.20726 16.9666 3.77189 17.0789 4.34211 17.0789C4.91232 17.0789 5.47695 16.9666 6.00376 16.7484C6.53057 16.5302 7.00924 16.2104 7.41244 15.8072C7.81564 15.404 8.13548 14.9253 8.35369 14.3985C8.5719 13.8717 8.68421 13.3071 8.68421 12.7368C8.68421 11.5852 8.22674 10.4808 7.41244 9.66651C6.59813 8.85221 5.4937 8.39474 4.34211 8.39474C3.19051 8.39474 2.08608 8.85221 1.27177 9.66651C0.457471 10.4808 1.71601e-08 11.5852 0 12.7368ZM6.71053 9.97368C6.81522 9.97368 6.91562 10.0153 6.98965 10.0893C7.06367 10.1633 7.10526 10.2637 7.10526 10.3684V11.9474C7.10526 12.0521 7.06367 12.1525 6.98965 12.2265C6.91562 12.3005 6.81522 12.3421 6.71053 12.3421H5.13158C5.02689 12.3421 4.92649 12.3005 4.85246 12.2265C4.77843 12.1525 4.73684 12.0521 4.73684 11.9474C4.73684 11.8427 4.77843 11.7423 4.85246 11.6682C4.92649 11.5942 5.02689 11.5526 5.13158 11.5526H5.92105C5.73721 11.3075 5.49882 11.1086 5.22476 10.9715C4.95071 10.8345 4.64851 10.7632 4.34211 10.7632C3.68447 10.7632 3.10105 11.0845 2.74184 11.5811C2.71198 11.6243 2.67378 11.6612 2.62947 11.6895C2.58516 11.7179 2.53564 11.737 2.48382 11.7459C2.432 11.7549 2.37892 11.7533 2.32769 11.7414C2.27647 11.7296 2.22814 11.7076 2.18554 11.6767C2.14293 11.6459 2.10692 11.6069 2.0796 11.562C2.05229 11.517 2.03423 11.4671 2.02648 11.4151C2.01873 11.3631 2.02146 11.31 2.03449 11.2591C2.04752 11.2081 2.0706 11.1603 2.10237 11.1184C2.35849 10.764 2.69506 10.4754 3.08443 10.2764C3.47379 10.0774 3.90483 9.97366 4.34211 9.97368C5.11579 9.97368 5.81447 10.2918 6.31579 10.8026V10.3684C6.31579 10.2637 6.35738 10.1633 6.4314 10.0893C6.50543 10.0153 6.60584 9.97368 6.71053 9.97368ZM2.36842 14.6711V15.1053C2.36842 15.21 2.32683 15.3104 2.25281 15.3844C2.17878 15.4584 2.07837 15.5 1.97368 15.5C1.86899 15.5 1.76859 15.4584 1.69456 15.3844C1.62054 15.3104 1.57895 15.21 1.57895 15.1053V13.5263C1.57895 13.4216 1.62054 13.3212 1.69456 13.2472C1.76859 13.1732 1.86899 13.1316 1.97368 13.1316H3.55263C3.65732 13.1316 3.75773 13.1732 3.83175 13.2472C3.90578 13.3212 3.94737 13.4216 3.94737 13.5263C3.94737 13.631 3.90578 13.7314 3.83175 13.8054C3.75773 13.8795 3.65732 13.9211 3.55263 13.9211H2.76316C3.12316 14.4011 3.69711 14.7105 4.34211 14.7105C4.94684 14.7105 5.48842 14.4389 5.85079 14.0095C5.9189 13.9315 6.01493 13.8834 6.11818 13.8755C6.22143 13.8677 6.32363 13.9007 6.40276 13.9675C6.48188 14.0343 6.53158 14.1295 6.54116 14.2326C6.55074 14.3357 6.51941 14.4385 6.45395 14.5187C6.19457 14.8261 5.87121 15.0732 5.50645 15.2427C5.14169 15.4122 4.74432 15.5 4.34211 15.5C3.97452 15.5001 3.61063 15.4268 3.27173 15.2844C2.93282 15.1421 2.62573 14.9336 2.36842 14.6711Z" fill="#ee933e"/>
  </svg>