<svg xmlns="http://www.w3.org/2000/svg" width="15" height="16" viewBox="0 0 15 16">
    <path
        d="M13.2875 8.51206H10.902V7.31927H13.2875V8.51206ZM13.2875 9.19362H10.902V10.3864H13.2875V9.19362ZM13.2875 3.57056H10.902V4.76332H13.2875V3.57056ZM13.2875 5.44491H10.902V6.63768H13.2875V5.44491ZM13.2875 11.068H10.902V12.2608H13.2875V11.068ZM14.9352 13.4195C14.8671 13.7739 14.4411 13.7824 14.1565 13.7943H8.85721V15.3279H7.79903L0 13.9647V2.03871L7.84506 0.673828H8.85721V2.03188H13.9742C14.2622 2.04381 14.5791 2.02336 14.8296 2.19545C15.0051 2.44764 14.9881 2.768 15 3.05766L14.9932 11.9285C14.9847 12.4243 15.0392 12.9304 14.9352 13.4195ZM6.24841 10.7459C5.77814 9.79175 5.29934 8.84432 4.83073 7.89009C5.29421 6.96144 5.75089 6.02939 6.20584 5.0973C5.81903 5.11606 5.43223 5.1399 5.04715 5.16718C4.75916 5.86749 4.42348 6.54908 4.19857 7.27327C3.98898 6.58998 3.71124 5.93224 3.45735 5.266C3.08247 5.28645 2.70759 5.30859 2.33273 5.33074C2.72804 6.2032 3.14895 7.06365 3.53232 7.94121C3.08077 8.79319 2.65819 9.65713 2.22026 10.5142C2.59342 10.5295 2.9666 10.5449 3.33976 10.55C3.6056 9.87182 3.93615 9.2192 4.16789 8.52738C4.37578 9.27032 4.72849 9.95701 5.01817 10.6676C5.42883 10.6966 5.83776 10.7221 6.24841 10.7459ZM14.1873 2.84115H8.85721V3.57056H10.2204V4.76332H8.85721V5.44491H10.2204V6.63768H8.85721V7.31927H10.2204V8.51206H8.85721V9.19362H10.2204V10.3864H8.85721V11.068H10.2204V12.2608H8.85721V13.0488H14.1873V2.84115Z"
        fill="currentColor" />
</svg>