<svg xmlns="http://www.w3.org/2000/svg" width="16" height="15" viewBox="0 0 16 15" fill="none">
  <path
    d="M3 1.54286C3 1.13367 3.15804 0.741234 3.43934 0.451892C3.72064 0.162551 4.10218 0 4.5 0H11.5C11.8978 0 12.2794 0.162551 12.5607 0.451892C12.842 0.741234 13 1.13367 13 1.54286V2.05714H13.5C14.163 2.05714 14.7989 2.32806 15.2678 2.8103C15.7366 3.29253 16 3.94659 16 4.62857V9.77143C16 10.1806 15.842 10.5731 15.5607 10.8624C15.2794 11.1517 14.8978 11.3143 14.5 11.3143H13V12.8571C13 13.2663 12.842 13.6588 12.5607 13.9481C12.2794 14.2374 11.8978 14.4 11.5 14.4H4.5C4.10218 14.4 3.72064 14.2374 3.43934 13.9481C3.15804 13.6588 3 13.2663 3 12.8571V11.3143H1.5C1.10218 11.3143 0.720644 11.1517 0.43934 10.8624C0.158035 10.5731 0 10.1806 0 9.77143V4.62857C0 3.94659 0.263392 3.29253 0.732233 2.8103C1.20107 2.32806 1.83696 2.05714 2.5 2.05714H3V1.54286ZM4 2.05714H12V1.54286C12 1.40646 11.9473 1.27565 11.8536 1.1792C11.7598 1.08276 11.6326 1.02857 11.5 1.02857H4.5C4.36739 1.02857 4.24022 1.08276 4.14645 1.1792C4.05268 1.27565 4 1.40646 4 1.54286V2.05714ZM3 10.2857V8.74286C3 8.33366 3.15804 7.94123 3.43934 7.65189C3.72064 7.36255 4.10218 7.2 4.5 7.2H11.5C11.8978 7.2 12.2794 7.36255 12.5607 7.65189C12.842 7.94123 13 8.33366 13 8.74286V10.2857H14.5C14.6326 10.2857 14.7598 10.2315 14.8536 10.1351C14.9473 10.0386 15 9.90782 15 9.77143V4.62857C15 4.21938 14.842 3.82695 14.5607 3.53761C14.2794 3.24826 13.8978 3.08571 13.5 3.08571H2.5C2.10218 3.08571 1.72064 3.24826 1.43934 3.53761C1.15804 3.82695 1 4.21938 1 4.62857V9.77143C1 9.90782 1.05268 10.0386 1.14645 10.1351C1.24021 10.2315 1.36739 10.2857 1.5 10.2857H3ZM4.5 8.22857C4.36739 8.22857 4.24022 8.28275 4.14645 8.3792C4.05268 8.47565 4 8.60646 4 8.74286V12.8571C4 12.9935 4.05268 13.1243 4.14645 13.2208C4.24022 13.3172 4.36739 13.3714 4.5 13.3714H11.5C11.6326 13.3714 11.7598 13.3172 11.8536 13.2208C11.9473 13.1243 12 12.9935 12 12.8571V8.74286C12 8.60646 11.9473 8.47565 11.8536 8.3792C11.7598 8.28275 11.6326 8.22857 11.5 8.22857H4.5Z"
    fill="currentColor" />
</svg>