<svg xmlns="http://www.w3.org/2000/svg" width="18" height="19" viewBox="0 0 18 19" fill="none">
  <path
    d="M2.96206 10.4885C2.89491 10.6718 2.75893 10.8217 2.58302 10.9064C2.4071 10.991 2.20511 11.0037 2.01997 10.9418C1.83482 10.8799 1.68111 10.7483 1.5915 10.5748C1.50188 10.4014 1.48343 10.1998 1.54006 10.013C1.56673 9.93041 1.59777 9.8478 1.63306 9.7685C1.69306 9.626 1.78156 9.4295 1.90306 9.197C2.15056 8.732 2.53606 8.1125 3.10456 7.493C4.25206 6.2405 6.13156 5 9.00106 5C11.8706 5 13.7501 6.2405 14.8976 7.493C15.5101 8.16496 16.0068 8.93391 16.3676 9.7685L16.4366 9.938C16.4411 9.95 16.4561 10.028 16.4711 10.103L16.5011 10.25C16.5011 10.25 16.6271 10.7495 15.9881 10.961C15.7999 11.0238 15.5945 11.0096 15.4168 10.9213C15.2391 10.833 15.1036 10.6779 15.0401 10.49V10.4855L15.0311 10.4615C14.9557 10.2688 14.8696 10.0805 14.7731 9.8975C14.5063 9.39428 14.1767 8.92703 13.7921 8.507C12.8771 7.5095 11.3816 6.5 9.00106 6.5C6.62056 6.5 5.12506 7.5095 4.21006 8.507C3.71467 9.0501 3.31181 9.67086 3.01756 10.3445C3.00182 10.3832 2.98682 10.4222 2.97256 10.4615L2.96206 10.4885ZM6.00106 11C6.00106 10.2044 6.31713 9.44129 6.87974 8.87868C7.44235 8.31607 8.20541 8 9.00106 8C9.79671 8 10.5598 8.31607 11.1224 8.87868C11.685 9.44129 12.0011 10.2044 12.0011 11C12.0011 11.7956 11.685 12.5587 11.1224 13.1213C10.5598 13.6839 9.79671 14 9.00106 14C8.20541 14 7.44235 13.6839 6.87974 13.1213C6.31713 12.5587 6.00106 11.7956 6.00106 11Z"
    fill="currentColor" />
</svg>