<svg xmlns="http://www.w3.org/2000/svg" width="24" height="24" viewBox="0 0 24 24" fill="none">
    <path d="M15.7498 12C15.6198 12 15.4798 11.98 15.3498 11.94C15.1011 11.856 14.8852 11.6959 14.7326 11.4823C14.5801 11.2687 14.4986 11.0125 14.4998 10.75V8.99C13.0998 8.86 11.9998 7.68 11.9998 6.25V2.75C11.9998 1.23 13.2298 0 14.7498 0H21.2498C22.7698 0 23.9998 1.23 23.9998 2.75V6.25C23.9998 7.77 22.7698 9 21.2498 9H18.6298L16.7498 11.5C16.5098 11.82 16.1398 12 15.7498 12ZM14.7498 1.5C14.0598 1.5 13.4998 2.06 13.4998 2.75V6.25C13.4998 6.94 14.0598 7.5 14.7498 7.5H15.9998V10L17.8798 7.5H21.2598C21.9498 7.5 22.5098 6.94 22.5098 6.25V2.75C22.5098 2.06 21.9498 1.5 21.2598 1.5H14.7498ZM7.49981 14.5C6.37345 14.4974 5.29398 14.0487 4.49752 13.2523C3.70106 12.4558 3.25245 11.3764 3.24981 10.25C3.25245 9.12364 3.70106 8.04417 4.49752 7.24771C5.29398 6.45126 6.37345 6.00264 7.49981 6C8.62616 6.00264 9.70563 6.45126 10.5021 7.24771C11.2986 8.04417 11.7472 9.12364 11.7498 10.25C11.7472 11.3764 11.2986 12.4558 10.5021 13.2523C9.70563 14.0487 8.62616 14.4974 7.49981 14.5ZM7.49981 7.5C5.97981 7.5 4.74981 8.73 4.74981 10.25C4.74981 11.77 5.97981 13 7.49981 13C9.01981 13 10.2498 11.77 10.2498 10.25C10.2498 8.73 9.01981 7.5 7.49981 7.5ZM1.47081 21.92C2.78081 23.3 4.81081 24 7.50081 24C10.1908 24 12.2208 23.3 13.5308 21.92C15.0528 20.31 15.0038 18.367 15.0008 18.236V18.23C15.0008 17 14.0008 16 12.7708 16H2.23081C1.00081 16 0.000805816 17 0.000805816 18.19V18.203C-0.00319418 18.393 -0.0411941 20.32 1.47081 21.92ZM1.50081 18.23C1.50081 17.83 1.83081 17.5 2.23081 17.5H12.7708C13.1708 17.5 13.5008 17.83 13.5008 18.27V18.272C13.4794 19.2449 13.1023 20.1763 12.4408 20.89C11.4308 21.96 9.75081 22.5 7.50081 22.5C5.25081 22.5 3.60081 21.97 2.58081 20.91C1.89356 20.1907 1.5072 19.2359 1.50081 18.241V18.23Z" fill="#1f69f3"/>
  </svg>