<svg xmlns="http://www.w3.org/2000/svg" width="34" height="33" viewBox="0 0 34 33" fill="none">
  <g clip-path="url(#clip0_380_10562)">
    <path
      d="M16.7822 0C26.051 0 33.5644 7.35422 33.5644 16.4267C33.5644 25.4991 26.051 32.8533 16.7822 32.8533C7.5134 32.8533 0 25.4991 0 16.4267C0 7.35422 7.5134 0 16.7822 0ZM16.7822 2.29152C12.9522 2.29152 9.27905 3.78075 6.57082 6.43161C3.86259 9.08246 2.34112 12.6778 2.34112 16.4267C2.34112 20.1755 3.86259 23.7709 6.57082 26.4217C9.27905 29.0726 12.9522 30.5618 16.7822 30.5618C20.6122 30.5618 24.2854 29.0726 26.9936 26.4217C29.7019 23.7709 31.2233 20.1755 31.2233 16.4267C31.2233 12.6778 29.7019 9.08246 26.9936 6.43161C24.2854 3.78075 20.6122 2.29152 16.7822 2.29152ZM16.5389 11.8436C17.185 11.8436 17.7086 12.3578 17.7086 12.9902V25.4055C17.6971 25.7018 17.5688 25.9823 17.3505 26.188C17.1323 26.3938 16.841 26.5087 16.538 26.5087C16.235 26.5087 15.9438 26.3938 15.7256 26.188C15.5073 25.9823 15.3789 25.7018 15.3675 25.4055V12.9886C15.3675 12.3561 15.8911 11.8436 16.5389 11.8436ZM16.5859 7.26059C16.9998 7.26059 17.3968 7.42154 17.6895 7.70803C17.9822 7.99453 18.1466 8.3831 18.1466 8.78827C18.1466 9.19343 17.9822 9.582 17.6895 9.8685C17.3968 10.155 16.9998 10.3159 16.5859 10.3159C16.1719 10.3159 15.775 10.155 15.4823 9.8685C15.1896 9.582 15.0251 9.19343 15.0251 8.78827C15.0251 8.3831 15.1896 7.99453 15.4823 7.70803C15.775 7.42154 16.1719 7.26059 16.5859 7.26059Z"
      fill="currentColor"/>
  </g>
  <defs>
    <clipPath id="clip0_380_10562">
      <rect width="33.5644" height="32.8533" fill="white" />
    </clipPath>
  </defs>
</svg>