<svg xmlns="http://www.w3.org/2000/svg" width="42" height="42" viewBox="0 0 42 42" fill="none">
  <path
    d="M21 5.6875C21.3481 5.6875 21.6819 5.82578 21.9281 6.07192C22.1742 6.31806 22.3125 6.6519 22.3125 7C22.3125 7.3481 22.1742 7.68194 21.9281 7.92808C21.6819 8.17422 21.3481 8.3125 21 8.3125C17.6351 8.3125 14.408 9.64922 12.0286 12.0286C9.64922 14.408 8.3125 17.6351 8.3125 21C8.3125 24.3649 9.64922 27.592 12.0286 29.9714C14.408 32.3508 17.6351 33.6875 21 33.6875C21.3481 33.6875 21.6819 33.8258 21.9281 34.0719C22.1742 34.3181 22.3125 34.6519 22.3125 35C22.3125 35.3481 22.1742 35.6819 21.9281 35.9281C21.6819 36.1742 21.3481 36.3125 21 36.3125C16.9389 36.3125 13.0441 34.6992 10.1724 31.8276C7.30078 28.9559 5.6875 25.0611 5.6875 21C5.6875 16.9389 7.30078 13.0441 10.1724 10.1724C13.0441 7.30078 16.9389 5.6875 21 5.6875Z"
    fill="currentColor" />
  <path
    d="M28.8225 16.678C28.5907 16.4292 28.4644 16.1001 28.4704 15.7601C28.4764 15.42 28.6142 15.0956 28.8547 14.8551C29.0951 14.6147 29.4196 14.4769 29.7596 14.4709C30.0996 14.4649 30.4287 14.5911 30.6775 14.823L35.9275 20.073C36.1733 20.3191 36.3113 20.6527 36.3113 21.0005C36.3113 21.3483 36.1733 21.6819 35.9275 21.928L30.6775 27.178C30.5573 27.3069 30.4124 27.4103 30.2514 27.4821C30.0904 27.5538 29.9166 27.5924 29.7404 27.5955C29.5642 27.5986 29.3891 27.5662 29.2257 27.5002C29.0623 27.4342 28.9138 27.3359 28.7892 27.2113C28.6645 27.0866 28.5663 26.9382 28.5003 26.7748C28.4343 26.6113 28.4019 26.4363 28.405 26.2601C28.4081 26.0838 28.4466 25.91 28.5184 25.749C28.5901 25.588 28.6935 25.4431 28.8225 25.323L31.8325 22.313H17.5C17.1519 22.313 16.8181 22.1747 16.5719 21.9285C16.3258 21.6824 16.1875 21.3486 16.1875 21.0005C16.1875 20.6524 16.3258 20.3185 16.5719 20.0724C16.8181 19.8262 17.1519 19.688 17.5 19.688H31.8325L28.8225 16.678Z"
    fill="currentColor" />
</svg>