<svg xmlns="http://www.w3.org/2000/svg" width="24" height="25" viewBox="0 0 24 25" fill="none">
    <path
        d="M4 13.8281C4.55 13.8281 5 13.3781 5 12.8281C5 12.2781 4.55 11.8281 4 11.8281C3.45 11.8281 3 12.2781 3 12.8281C3 13.3781 3.45 13.8281 4 13.8281ZM4 17.8281C4.55 17.8281 5 17.3781 5 16.8281C5 16.2781 4.55 15.8281 4 15.8281C3.45 15.8281 3 16.2781 3 16.8281C3 17.3781 3.45 17.8281 4 17.8281ZM4 9.82812C4.55 9.82812 5 9.37812 5 8.82812C5 8.27812 4.55 7.82812 4 7.82812C3.45 7.82812 3 8.27812 3 8.82812C3 9.37812 3.45 9.82812 4 9.82812ZM8 13.8281H20C20.55 13.8281 21 13.3781 21 12.8281C21 12.2781 20.55 11.8281 20 11.8281H8C7.45 11.8281 7 12.2781 7 12.8281C7 13.3781 7.45 13.8281 8 13.8281ZM8 17.8281H20C20.55 17.8281 21 17.3781 21 16.8281C21 16.2781 20.55 15.8281 20 15.8281H8C7.45 15.8281 7 16.2781 7 16.8281C7 17.3781 7.45 17.8281 8 17.8281ZM7 8.82812C7 9.37812 7.45 9.82812 8 9.82812H20C20.55 9.82812 21 9.37812 21 8.82812C21 8.27812 20.55 7.82812 20 7.82812H8C7.45 7.82812 7 8.27812 7 8.82812ZM4 13.8281C4.55 13.8281 5 13.3781 5 12.8281C5 12.2781 4.55 11.8281 4 11.8281C3.45 11.8281 3 12.2781 3 12.8281C3 13.3781 3.45 13.8281 4 13.8281ZM4 17.8281C4.55 17.8281 5 17.3781 5 16.8281C5 16.2781 4.55 15.8281 4 15.8281C3.45 15.8281 3 16.2781 3 16.8281C3 17.3781 3.45 17.8281 4 17.8281ZM4 9.82812C4.55 9.82812 5 9.37812 5 8.82812C5 8.27812 4.55 7.82812 4 7.82812C3.45 7.82812 3 8.27812 3 8.82812C3 9.37812 3.45 9.82812 4 9.82812ZM8 13.8281H20C20.55 13.8281 21 13.3781 21 12.8281C21 12.2781 20.55 11.8281 20 11.8281H8C7.45 11.8281 7 12.2781 7 12.8281C7 13.3781 7.45 13.8281 8 13.8281ZM8 17.8281H20C20.55 17.8281 21 17.3781 21 16.8281C21 16.2781 20.55 15.8281 20 15.8281H8C7.45 15.8281 7 16.2781 7 16.8281C7 17.3781 7.45 17.8281 8 17.8281ZM7 8.82812C7 9.37812 7.45 9.82812 8 9.82812H20C20.55 9.82812 21 9.37812 21 8.82812C21 8.27812 20.55 7.82812 20 7.82812H8C7.45 7.82812 7 8.27812 7 8.82812Z"
        fill="currentColor" />
</svg>