<svg xmlns="http://www.w3.org/2000/svg" width="56" height="56" viewBox="0 0 56 56" fill="none">
  <path
    d="M27.9999 4.25781C21.4599 4.25781 15.4839 8.92181 15.4839 18.5078V24.1328C12.9539 24.4378 11.7109 25.9608 11.7109 28.9608V46.8438C11.7109 50.2188 13.2579 51.7418 16.3749 51.7418H39.6249C42.7419 51.7418 44.2889 50.2188 44.2889 46.8438V28.9378C44.2889 25.9378 43.0469 24.3438 40.5159 24.0628V18.5078C40.5159 8.92181 34.5389 4.25781 27.9999 4.25781ZM19.2579 17.9918C19.2579 11.4528 23.1479 7.86681 27.9999 7.86681C32.8519 7.86681 36.7419 11.4528 36.7419 17.9918V24.0388L19.2579 24.0618V17.9918Z"
    fill="currentColor" />
</svg>