<svg xmlns="http://www.w3.org/2000/svg" width="11" height="13" viewBox="0 0 12 14" fill="currentcolor">
  <path d="M5.21824 8.46512V9.76744C4.18027 9.76744 3.18481 10.1791 2.45085 10.9118C1.71689 11.6445 1.30456 12.6382 1.30456 13.6744H0C0 12.2928 0.549778 10.9678 1.52839 9.99089C2.507 9.01395 3.83428 8.46512 5.21824 8.46512ZM5.21824 7.81395C3.05593 7.81395 1.30456 6.06558 1.30456 3.90698C1.30456 1.74837 3.05593 0 5.21824 0C7.38055 0 9.13192 1.74837 9.13192 3.90698C9.13192 6.06558 7.38055 7.81395 5.21824 7.81395ZM5.21824 6.51163C6.65978 6.51163 7.82736 5.34605 7.82736 3.90698C7.82736 2.46791 6.65978 1.30233 5.21824 1.30233C3.7767 1.30233 2.60912 2.46791 2.60912 3.90698C2.60912 5.34605 3.7767 6.51163 5.21824 6.51163ZM6.91091 11.5979C6.82819 11.2506 6.82819 10.8889 6.91091 10.5417L6.26385 10.1686L6.91613 9.04074L7.56319 9.41386C7.82293 9.16833 8.13686 8.98721 8.47964 8.88512V8.13953H9.7842V8.88512C10.1312 8.988 10.4443 9.17163 10.7007 9.41386L11.3477 9.04074L12 10.1686L11.3536 10.5417C11.4361 10.8889 11.4361 11.2506 11.3536 11.5979L12 11.971L11.3477 13.0988L10.7007 12.7257C10.441 12.9713 10.127 13.1524 9.7842 13.2544V14H8.47964V13.2544C8.13684 13.1524 7.82289 12.9713 7.56319 12.7257L6.91613 13.0988L6.26385 11.971L6.91091 11.5979ZM9.13192 12.0465C9.39142 12.0465 9.64028 11.9436 9.82377 11.7604C10.0073 11.5773 10.1103 11.3288 10.1103 11.0698C10.1103 10.8107 10.0073 10.5623 9.82377 10.3791C9.64028 10.1959 9.39142 10.093 9.13192 10.093C8.87243 10.093 8.62357 10.1959 8.44008 10.3791C8.25659 10.5623 8.1535 10.8107 8.1535 11.0698C8.1535 11.3288 8.25659 11.5773 8.44008 11.7604C8.62357 11.9436 8.87243 12.0465 9.13192 12.0465Z" 
  fill="#currentcolor"/>
</svg>