<svg xmlns="http://www.w3.org/2000/svg" width="17" height="17" viewBox="0 0 17 17" fill="currentColor">
  <path d="M15.7395 11.3367L14.9998 10.597L13.1165 12.4803L11.2332 10.597L10.4935 11.3367L12.3768 13.22L10.4935 15.1033L11.2332 15.843L13.1165 13.9597L14.9998 15.843L15.7395 15.1033L13.8562 13.22L15.7395 11.3367ZM7.34595 13.7446C5.67637 13.7446 4.07517 13.0814 2.89459 11.9008C1.71402 10.7202 1.05078 9.11904 1.05078 7.44946C1.05078 5.77988 1.71402 4.17868 2.89459 2.99811C4.07517 1.81754 5.67637 1.1543 7.34595 1.1543V13.7446ZM9.35306 2.60428C9.98912 2.8681 10.567 3.25455 11.0538 3.74161L11.7945 3.00088C11.2105 2.41636 10.5171 1.95254 9.75385 1.63588L9.35306 2.60428ZM13.6411 7.44946C13.6418 6.6229 13.4782 5.80443 13.1601 5.04156L12.1911 5.44235C12.4565 6.07818 12.5928 6.76046 12.5919 7.44946H13.6411Z" fill="currentColor"/>
</svg>