<svg xmlns="http://www.w3.org/2000/svg" width="14" height="11" viewBox="0 0 14 11"
  fill="currentcolor">
  <path
    d="M13.4751 9.17558H4.72495C4.59193 9.17562 4.46388 9.22616 4.36669 9.31697C4.26949 9.40778 4.21038 9.5321 4.20132 9.66481C4.19225 9.79752 4.2339 9.92872 4.31784 10.0319C4.40178 10.1351 4.52177 10.2026 4.65355 10.2207L4.72495 10.2256H13.4751C13.6082 10.2256 13.7362 10.175 13.8334 10.0842C13.9306 9.99341 13.9897 9.86909 13.9988 9.73638C14.0078 9.60367 13.9662 9.47247 13.8823 9.36928C13.7983 9.26609 13.6783 9.19861 13.5465 9.18048L13.4751 9.17558ZM13.4751 6.37552H0.524852C0.391832 6.37556 0.263787 6.42609 0.16659 6.5169C0.0693922 6.60772 0.0102882 6.73204 0.00122166 6.86475C-0.00784492 6.99746 0.0338011 7.12866 0.117745 7.23185C0.201689 7.33503 0.321672 7.40251 0.45345 7.42064L0.524852 7.42554H13.4751C13.6082 7.4255 13.7362 7.37497 13.8334 7.28416C13.9306 7.19335 13.9897 7.06903 13.9988 6.93632C14.0078 6.80361 13.9662 6.6724 13.8823 6.56921C13.7983 6.46603 13.6783 6.39855 13.5465 6.38042L13.4751 6.37552ZM13.4751 3.57545H0.524852C0.391832 3.5755 0.263787 3.62603 0.16659 3.71684C0.0693922 3.80765 0.0102882 3.93197 0.00122166 4.06468C-0.00784492 4.19739 0.0338011 4.3286 0.117745 4.43178C0.201689 4.53497 0.321672 4.60245 0.45345 4.62058L0.524852 4.62548H13.4751C13.6082 4.62544 13.7362 4.57491 13.8334 4.48409C13.9306 4.39328 13.9897 4.26896 13.9988 4.13625C14.0078 4.00354 13.9662 3.87234 13.8823 3.76915C13.7983 3.66596 13.6783 3.59849 13.5465 3.58035L13.4751 3.57545ZM13.4751 0.775391H0.524852C0.391832 0.775431 0.263787 0.825963 0.16659 0.916775C0.0693922 1.00759 0.0102882 1.13191 0.00122166 1.26462C-0.00784492 1.39733 0.0338011 1.52853 0.117745 1.63172C0.201689 1.73491 0.321672 1.80238 0.45345 1.82051L0.524852 1.82541H13.4751C13.6082 1.82537 13.7362 1.77484 13.8334 1.68403C13.9306 1.59322 13.9897 1.4689 13.9988 1.33619C14.0078 1.20348 13.9662 1.07227 13.8823 0.969086C13.7983 0.865899 13.6783 0.798422 13.5465 0.780291L13.4751 0.775391Z"
    fill="currentcolor" />
</svg>