<svg xmlns="http://www.w3.org/2000/svg" width="32" height="32" viewBox="0 0 32 32" fill="none">
    <path d="M28.037 17.29C28.167 17.72 28.567 18 28.997 18V17.99C29.1528 17.9915 29.3067 17.9563 29.4463 17.8873C29.5859 17.8183 29.7074 17.7174 29.8008 17.5928C29.8943 17.4682 29.9571 17.3234 29.9842 17.1701C30.0114 17.0167 30.0021 16.8591 29.957 16.71C29.926 16.61 26.616 6 15.998 6C5.38004 6 2.07304 16.61 2.04304 16.72C1.88304 17.25 2.18304 17.8 2.71304 17.96C3.24304 18.12 3.80304 17.82 3.96304 17.29C4.07204 16.91 6.89204 8 15.999 8C25.104 8 27.914 16.903 28.037 17.29ZM10.003 18C10.003 16.4087 10.6352 14.8826 11.7604 13.7574C12.8856 12.6321 14.4117 12 16.003 12C17.5943 12 19.1205 12.6321 20.2457 13.7574C21.3709 14.8826 22.003 16.4087 22.003 18C22.003 19.5913 21.3709 21.1174 20.2457 22.2426C19.1205 23.3679 17.5943 24 16.003 24C14.4117 24 12.8856 23.3679 11.7604 22.2426C10.6352 21.1174 10.003 19.5913 10.003 18Z" fill="black"/>
  </svg>