<svg xmlns="http://www.w3.org/2000/svg" width="20" height="20" viewBox="0 0 16 16" fill="none">
  <path
    d="M2.98779 8.625V8.628C2.97095 8.69151 2.94175 8.75109 2.90187 8.80331C2.86199 8.85553 2.81221 8.89938 2.75537 8.93235C2.69853 8.96532 2.63575 8.98676 2.57062 8.99546C2.50549 9.00415 2.43929 8.99991 2.37579 8.983C1.94479 8.869 2.02079 8.372 2.02079 8.372L2.03879 8.31C2.03879 8.31 2.06479 8.226 2.08579 8.165C2.34241 7.44549 2.72019 6.77516 3.20279 6.183C4.09979 5.089 5.60879 4 8.00379 4C10.3988 4 11.9078 5.089 12.8058 6.183C13.2884 6.77516 13.6662 7.44549 13.9228 8.165C13.9443 8.22684 13.9643 8.28919 13.9828 8.352L13.9858 8.365V8.369L13.9868 8.371C14.0185 8.49827 13.999 8.6329 13.9323 8.74588C13.8657 8.85886 13.7574 8.94114 13.6306 8.97498C13.5039 9.00883 13.369 8.99153 13.2549 8.92681C13.1408 8.86209 13.0568 8.75513 13.0208 8.629L13.0198 8.625L13.0118 8.6C12.9551 8.42299 12.8883 8.24938 12.8118 8.08C12.608 7.62678 12.3458 7.20217 12.0318 6.817C11.2898 5.912 10.0478 5 8.00379 5C5.95979 5 4.71879 5.912 3.97579 6.817C3.56829 7.31748 3.24875 7.88352 3.03079 8.491C3.01844 8.52711 3.00677 8.56345 2.99579 8.6L2.98779 8.625ZM5.50379 9.5C5.50379 8.83696 5.76718 8.20107 6.23602 7.73223C6.70487 7.26339 7.34075 7 8.00379 7C8.66683 7 9.30272 7.26339 9.77156 7.73223C10.2404 8.20107 10.5038 8.83696 10.5038 9.5C10.5038 10.163 10.2404 10.7989 9.77156 11.2678C9.30272 11.7366 8.66683 12 8.00379 12C7.34075 12 6.70487 11.7366 6.23602 11.2678C5.76718 10.7989 5.50379 10.163 5.50379 9.5Z"
    fill="currentColor" />
</svg>