<svg xmlns="http://www.w3.org/2000/svg" width="32" height="32" viewBox="0 0 32 32" fill="none">
  <path
    d="M28.037 17.29C28.167 17.72 28.567 18 28.997 18V17.99C29.1528 17.9915 29.3067 17.9563 29.4463 17.8873C29.5859 17.8183 29.7074 17.7174 29.8008 17.5928C29.8943 17.4682 29.9571 17.3234 29.9842 17.1701C30.0114 17.0167 30.0021 16.8591 29.957 16.71C29.926 16.61 26.616 6 15.998 6C5.38004 6 2.07304 16.61 2.04304 16.72C1.88304 17.25 2.18304 17.8 2.71304 17.96C3.24304 18.12 3.80304 17.82 3.96304 17.29C4.07204 16.91 6.89204 8 15.999 8C25.104 8 27.914 16.903 28.037 17.29ZM12.003 18C12.003 16.9391 12.4245 15.9217 13.1746 15.1716C13.9248 14.4214 14.9422 14 16.003 14C17.0639 14 18.0813 14.4214 18.8315 15.1716C19.5816 15.9217 20.003 16.9391 20.003 18C20.003 19.0609 19.5816 20.0783 18.8315 20.8284C18.0813 21.5786 17.0639 22 16.003 22C14.9422 22 13.9248 21.5786 13.1746 20.8284C12.4245 20.0783 12.003 19.0609 12.003 18ZM16.003 12C14.4117 12 12.8856 12.6321 11.7604 13.7574C10.6352 14.8826 10.003 16.4087 10.003 18C10.003 19.5913 10.6352 21.1174 11.7604 22.2426C12.8856 23.3679 14.4117 24 16.003 24C17.5943 24 19.1205 23.3679 20.2457 22.2426C21.3709 21.1174 22.003 19.5913 22.003 18C22.003 16.4087 21.3709 14.8826 20.2457 13.7574C19.1205 12.6321 17.5943 12 16.003 12Z"
    fill="currentColor" />
</svg>