<svg xmlns="http://www.w3.org/2000/svg" width="14" height="14" viewBox="0 0 14 14" fill="none">
    <path d="M7 14C5.046 14 3.39067 13.3223 2.034 11.967C0.678 10.611 0 8.95633 0 7.003C0 5.04967 0.678 3.39433 2.034 2.037C3.39 0.679667 5.04533 0.000666667 7 0C8.18867 0 9.30167 0.282333 10.339 0.847C11.3757 1.41167 12.2113 2.2 12.846 3.212V0H13.846V5.23H8.616V4.23H12.316C11.7947 3.23333 11.062 2.44567 10.118 1.867C9.174 1.28833 8.13467 0.999333 7 1C5.33333 1 3.91667 1.58333 2.75 2.75C1.58333 3.91667 1 5.33333 1 7C1 8.66667 1.58333 10.0833 2.75 11.25C3.91667 12.4167 5.33333 13 7 13C8.28333 13 9.44167 12.6333 10.475 11.9C11.5083 11.1667 12.2333 10.2 12.65 9H13.712C13.2707 10.4973 12.4327 11.705 11.198 12.623C9.96333 13.541 8.564 14 7 14Z" fill="#3C3C3C"/>
  </svg>