<svg xmlns="http://www.w3.org/2000/svg" width="14" height="14" viewBox="0 0 14 14" fill="none">
  <path
    d="M0 2.13889C0 1.57162 0.225347 1.02759 0.626466 0.626466C1.02759 0.225347 1.57162 0 2.13889 0H9.88944C10.5598 4.00337e-05 11.2028 0.266385 11.6768 0.740444L13.2596 2.32322C13.734 2.79767 14 3.44089 14 4.11133V11.8611C14 12.4284 13.7747 12.9724 13.3735 13.3735C12.9724 13.7747 12.4284 14 11.8611 14H2.13889C1.57162 14 1.02759 13.7747 0.626466 13.3735C0.225347 12.9724 0 12.4284 0 11.8611V2.13889ZM2.13889 1.16667C1.60222 1.16667 1.16667 1.60222 1.16667 2.13889V11.8611C1.16667 12.3978 1.60222 12.8333 2.13889 12.8333H2.33333V8.75C2.33333 8.28587 2.51771 7.84075 2.8459 7.51256C3.17409 7.18437 3.6192 7 4.08333 7H9.91667C10.3808 7 10.8259 7.18437 11.1541 7.51256C11.4823 7.84075 11.6667 8.28587 11.6667 8.75V12.8333H11.8611C12.3978 12.8333 12.8333 12.3978 12.8333 11.8611V4.11133C12.8333 3.74967 12.6902 3.40356 12.4343 3.14844L10.8516 1.56567C10.6506 1.36439 10.3917 1.23111 10.1111 1.18456V3.30556C10.1111 3.53537 10.0658 3.76293 9.9779 3.97525C9.88995 4.18757 9.76105 4.38049 9.59855 4.54299C9.43605 4.70549 9.24313 4.8344 9.03081 4.92234C8.81849 5.01029 8.59092 5.05556 8.36111 5.05556H4.86111C4.39698 5.05556 3.95186 4.87118 3.62367 4.54299C3.29549 4.2148 3.11111 3.76968 3.11111 3.30556V1.16667H2.13889ZM10.5 12.8333V8.75C10.5 8.59529 10.4385 8.44692 10.3291 8.33752C10.2198 8.22813 10.0714 8.16667 9.91667 8.16667H4.08333C3.92862 8.16667 3.78025 8.22813 3.67085 8.33752C3.56146 8.44692 3.5 8.59529 3.5 8.75V12.8333H10.5ZM4.27778 1.16667V3.30556C4.27778 3.62756 4.53911 3.88889 4.86111 3.88889H8.36111C8.51582 3.88889 8.66419 3.82743 8.77359 3.71803C8.88299 3.60864 8.94444 3.46027 8.94444 3.30556V1.16667H4.27778Z"
    fill="currentColor" />
</svg>