<svg xmlns="http://www.w3.org/2000/svg" width="18" height="18" viewBox="0 0 18 18" fill="none">
  <path
    d="M14.592 14.6H14.6M14.592 14.6C14.0944 15.0936 13.192 14.9712 12.5584 14.9712C11.7808 14.9712 11.4064 15.1232 10.852 15.6776C10.38 16.1496 9.7472 17 9 17C8.2528 17 7.62 16.1496 7.148 15.6776C6.5928 15.1232 6.2184 14.9712 5.4416 14.9712C4.8088 14.9712 3.9056 15.0944 3.4072 14.6C2.9056 14.1024 3.0288 13.1952 3.0288 12.5584C3.0288 11.7528 2.8528 11.3824 2.2792 10.8096C1.4264 9.9568 1 9.5296 1 9C1 8.4704 1.4264 8.0432 2.28 7.1904C2.792 6.6784 3.0288 6.1712 3.0288 5.4416C3.0288 4.8088 2.9056 3.9056 3.4 3.4072C3.8976 2.9056 4.8048 3.0288 5.4416 3.0288C6.1712 3.0288 6.6784 2.7912 7.1904 2.2792C8.0432 1.4264 8.4704 1 9 1C9.5296 1 9.9568 1.4264 10.8096 2.28C11.3216 2.792 11.8288 3.0288 12.5584 3.0288C13.1912 3.0288 14.0944 2.9056 14.5928 3.4C15.0944 3.8976 14.9712 4.8048 14.9712 5.4416C14.9712 6.2472 15.1472 6.6176 15.7208 7.1904C16.5736 8.0432 17 8.4704 17 9C17 9.5296 16.5736 9.9568 15.72 10.8096C15.1472 11.3832 14.9712 11.7536 14.9712 12.5584C14.9712 13.1952 15.0936 14.1024 14.592 14.6ZM6.6 9.7144L8.04 11L11.4 7"
    stroke="currentColor" stroke-width="1.3" stroke-linecap="round" stroke-linejoin="round" />
</svg>