<svg xmlns="http://www.w3.org/2000/svg" width="16" height="14" viewBox="0 0 16 14" fill="none">
  <path d="M4.57179 1.64706C4.06658 1.64706 3.58205 1.84848 3.22481 2.207C2.86757 2.56553 2.66688 3.05179 2.66688 3.55882C2.66688 4.06586 2.86757 4.55212 3.22481 4.91065C3.58205 5.26917 4.06658 5.47059 4.57179 5.47059C5.077 5.47059 5.56153 5.26917 5.91877 4.91065C6.27601 4.55212 6.4767 4.06586 6.4767 3.55882C6.4767 3.05179 6.27601 2.56553 5.91877 2.207C5.56153 1.84848 5.077 1.64706 4.57179 1.64706ZM1.52393 3.55882C1.52393 2.74757 1.84504 1.96955 2.41663 1.39591C2.98821 0.822268 3.76345 0.5 4.57179 0.5C5.38013 0.5 6.15537 0.822268 6.72695 1.39591C7.29854 1.96955 7.61965 2.74757 7.61965 3.55882C7.61965 4.37007 7.29854 5.1481 6.72695 5.72174C6.15537 6.29538 5.38013 6.61765 4.57179 6.61765C3.76345 6.61765 2.98821 6.29538 2.41663 5.72174C1.84504 5.1481 1.52393 4.37007 1.52393 3.55882ZM11.4295 3.17647C11.1263 3.17647 10.8356 3.29732 10.6213 3.51244C10.4069 3.72755 10.2865 4.01931 10.2865 4.32353C10.2865 4.62775 10.4069 4.91951 10.6213 5.13462C10.8356 5.34974 11.1263 5.47059 11.4295 5.47059C11.7326 5.47059 12.0233 5.34974 12.2377 5.13462C12.452 4.91951 12.5724 4.62775 12.5724 4.32353C12.5724 4.01931 12.452 3.72755 12.2377 3.51244C12.0233 3.29732 11.7326 3.17647 11.4295 3.17647ZM9.14358 4.32353C9.14358 3.71509 9.38441 3.13157 9.8131 2.70134C10.2418 2.27111 10.8232 2.02941 11.4295 2.02941C12.0357 2.02941 12.6172 2.27111 13.0458 2.70134C13.4745 3.13157 13.7154 3.71509 13.7154 4.32353C13.7154 4.93197 13.4745 5.51549 13.0458 5.94572C12.6172 6.37595 12.0357 6.61765 11.4295 6.61765C10.8232 6.61765 10.2418 6.37595 9.8131 5.94572C9.38441 5.51549 9.14358 4.93197 9.14358 4.32353ZM8.2117 8.33671C7.96965 8.21177 7.70134 8.14675 7.42916 8.14706H1.71442C1.25973 8.14706 0.823659 8.32833 0.502142 8.65101C0.180626 8.97368 0 9.41132 0 9.86765V10.0802C0.000798193 10.1334 0.00435882 10.1865 0.0106675 10.2393C0.0740008 10.8082 0.277756 11.3523 0.603476 11.8222C1.22676 12.7154 2.41695 13.5 4.57179 13.5C5.79703 13.5 6.71063 13.2461 7.38496 12.863L6.53385 12.0088C6.06296 12.213 5.429 12.3529 4.57179 12.3529C2.72631 12.3529 1.91558 11.7029 1.53917 11.1638C1.32613 10.855 1.1919 10.4984 1.14828 10.1254L1.14295 10.0642V9.86765C1.14295 9.71554 1.20316 9.56966 1.31033 9.4621C1.4175 9.35454 1.56286 9.29412 1.71442 9.29412H7.25772L8.2117 8.33671ZM13.9295 8.69765C13.8211 8.59634 13.6779 8.54119 13.5298 8.54381C13.3818 8.54643 13.2405 8.60662 13.1358 8.7117C13.0311 8.81678 12.9711 8.95855 12.9685 9.10713C12.9659 9.25571 13.0209 9.39951 13.1218 9.50823L14.0491 10.4412H8.80832L9.73715 9.50823C9.8381 9.39951 9.89305 9.25571 9.89044 9.10713C9.88783 8.95855 9.82785 8.81678 9.72315 8.7117C9.61844 8.60662 9.47719 8.54643 9.32914 8.54381C9.18108 8.54119 9.0378 8.59634 8.92947 8.69765L7.02456 10.6094C6.91754 10.7169 6.85743 10.8627 6.85743 11.0147C6.85743 11.1667 6.91754 11.3125 7.02456 11.42L8.92947 13.3318C9.0378 13.4331 9.18108 13.4882 9.32914 13.4856C9.47719 13.483 9.61844 13.4228 9.72315 13.3177C9.82785 13.2126 9.88783 13.0709 9.89044 12.9223C9.89305 12.7737 9.8381 12.6299 9.73715 12.5212L8.80755 11.5882H14.0499L13.1203 12.5212C13.0193 12.6299 12.9644 12.7737 12.967 12.9223C12.9696 13.0709 13.0296 13.2126 13.1343 13.3177C13.239 13.4228 13.3802 13.483 13.5283 13.4856C13.6763 13.4882 13.8196 13.4331 13.928 13.3318L15.8329 11.42C15.9399 11.3125 16 11.1667 16 11.0147C16 10.8627 15.9399 10.7169 15.8329 10.6094L13.9295 8.69765Z" 
  fill="currentColor"/>
</svg>