<svg xmlns="http://www.w3.org/2000/svg" width="16" height="16" viewBox="0 0 16 16" fill="none" >
  <path
    d="M15 13V3C15 2.46957 14.7542 1.96086 14.3166 1.58579C13.879 1.21071 13.2855 1 12.6667 1H3.33333C2.71449 1 2.121 1.21071 1.68342 1.58579C1.24583 1.96086 1 2.46957 1 3V13C1 13.5304 1.24583 14.0391 1.68342 14.4142C2.121 14.7893 2.71449 15 3.33333 15H12.6667C13.2855 15 13.879 14.7893 14.3166 14.4142C14.7542 14.0391 15 13.5304 15 13M4.5 5H11.5M4.5 8H11.5M4.5 11H11.5"
    stroke="currentColor" stroke-width="1" stroke-linecap="round" stroke-linejoin="round" />
</svg>