<svg xmlns="http://www.w3.org/2000/svg" viewBox="0 0 17 15" fill="none">
  <path
    d="M6.93012 7.69026H6.161V6.75226H6.89425C7.57675 6.75226 8.07375 6.29551 8.0685 5.66989C8.0685 5.04951 7.57587 4.62426 6.889 4.62426C6.19775 4.62426 5.741 5.06001 5.7095 5.54739H4.6175C4.649 4.55251 5.44875 3.69676 6.91437 3.69151C8.30912 3.68101 9.19637 4.46589 9.22175 5.49576C9.24187 6.49063 8.44738 7.04976 7.925 7.13638V7.19763C8.54012 7.25888 9.42125 7.75763 9.44225 8.87501C9.46325 10.1516 8.32487 10.9715 6.8785 10.9715C5.38663 10.9715 4.50987 10.1254 4.46875 9.09551H5.54062C5.59225 9.61788 6.13562 10.023 6.889 10.0283C7.74037 10.0335 8.289 9.53563 8.2785 8.84351C8.27325 8.16188 7.73513 7.69026 6.93012 7.69026Z"
    fill="currentColor" />
  <path
    d="M0 2.07812C0 1.614 0.184374 1.16888 0.512563 0.840688C0.840752 0.512499 1.28587 0.328125 1.75 0.328125L12.25 0.328125C12.7141 0.328125 13.1592 0.512499 13.4874 0.840688C13.8156 1.16888 14 1.614 14 2.07812V12.5781C14 13.0423 13.8156 13.4874 13.4874 13.8156C13.1592 14.1438 12.7141 14.3281 12.25 14.3281H1.75C1.28587 14.3281 0.840752 14.1438 0.512563 13.8156C0.184374 13.4874 0 13.0423 0 12.5781V2.07812ZM13.125 2.07812C13.125 1.84606 13.0328 1.6235 12.8687 1.45941C12.7046 1.29531 12.4821 1.20312 12.25 1.20312H1.75C1.51794 1.20312 1.29538 1.29531 1.13128 1.45941C0.967187 1.6235 0.875 1.84606 0.875 2.07812V12.5781C0.875 12.8102 0.967187 13.0327 1.13128 13.1968C1.29538 13.3609 1.51794 13.4531 1.75 13.4531H12.25C12.4821 13.4531 12.7046 13.3609 12.8687 13.1968C13.0328 13.0327 13.125 12.8102 13.125 12.5781V2.07812Z"
    fill="currentColor" />
</svg>
  