<svg viewBox="0 0 17 15" fill="none"
  xmlns="http://www.w3.org/2000/svg">
  <path
    d="M6.99631 10.9664C5.62256 10.9664 4.67406 10.1771 4.61719 9.11575H5.69956C5.82206 9.74575 6.42756 10.0179 7.03744 10.0179C7.72956 10.0179 8.41119 9.4955 8.41119 8.547C8.41119 7.70088 7.77069 7.17325 7.02694 7.17325C6.35581 7.17325 5.94019 7.567 5.77131 7.88025H4.76594L5.06869 3.82812H9.18556V4.79325H6.01719L5.84831 6.84338H5.90431C6.05306 6.61763 6.52994 6.24837 7.31394 6.24837C8.52406 6.24837 9.55481 7.07438 9.55481 8.51025C9.55481 9.98638 8.51881 10.9655 6.99631 10.9655V10.9664Z"
    fill="currentColor" />
  <path
    d="M0 2.07812C0 1.614 0.184374 1.16888 0.512563 0.840688C0.840752 0.512499 1.28587 0.328125 1.75 0.328125L12.25 0.328125C12.7141 0.328125 13.1592 0.512499 13.4874 0.840688C13.8156 1.16888 14 1.614 14 2.07812V12.5781C14 13.0423 13.8156 13.4874 13.4874 13.8156C13.1592 14.1438 12.7141 14.3281 12.25 14.3281H1.75C1.28587 14.3281 0.840752 14.1438 0.512563 13.8156C0.184374 13.4874 0 13.0423 0 12.5781V2.07812ZM13.125 2.07812C13.125 1.84606 13.0328 1.6235 12.8687 1.45941C12.7046 1.29531 12.4821 1.20312 12.25 1.20312H1.75C1.51794 1.20312 1.29538 1.29531 1.13128 1.45941C0.967187 1.6235 0.875 1.84606 0.875 2.07812V12.5781C0.875 12.8102 0.967187 13.0327 1.13128 13.1968C1.29538 13.3609 1.51794 13.4531 1.75 13.4531H12.25C12.4821 13.4531 12.7046 13.3609 12.8687 13.1968C13.0328 13.0327 13.125 12.8102 13.125 12.5781V2.07812Z"
    fill="currentColor" />
</svg>
  