<svg xmlns="http://www.w3.org/2000/svg" width="20" height="20" viewBox="0 0 16 16" fill="none">
  <path
    d="M10.1206 10.8276L14.1466 14.8546C14.1931 14.9011 14.2483 14.938 14.309 14.9632C14.3698 14.9883 14.4349 15.0013 14.5006 15.0013C14.5664 15.0013 14.6315 14.9883 14.6922 14.9632C14.753 14.938 14.8081 14.9011 14.8546 14.8546C14.9011 14.8081 14.938 14.753 14.9632 14.6922C14.9883 14.6315 15.0013 14.5664 15.0013 14.5006C15.0013 14.4349 14.9883 14.3698 14.9632 14.309C14.938 14.2483 14.9011 14.1931 14.8546 14.1466L1.85463 1.14663C1.80814 1.10014 1.75295 1.06327 1.69222 1.03811C1.63148 1.01295 1.56638 1 1.50063 1C1.43489 1 1.36979 1.01295 1.30905 1.03811C1.24831 1.06327 1.19312 1.10014 1.14663 1.14663C1.10014 1.19312 1.06327 1.24831 1.03811 1.30905C1.01295 1.36979 1 1.43489 1 1.50063C1 1.56638 1.01295 1.63148 1.03811 1.69222C1.06327 1.75295 1.10014 1.80814 1.14663 1.85463L4.37663 5.08463C3.93701 5.39605 3.54144 5.76539 3.20063 6.18263C2.71803 6.77479 2.34025 7.44512 2.08363 8.16463C2.06263 8.22563 2.03663 8.30963 2.03663 8.30963L2.01863 8.37163C2.01863 8.37163 1.94263 8.86863 2.37363 8.98263C2.50173 9.01649 2.63802 8.99812 2.75259 8.93156C2.86715 8.865 2.95061 8.75568 2.98463 8.62763L2.98563 8.62463L2.99363 8.59963L3.02863 8.49063C3.24659 7.88316 3.56613 7.31711 3.97363 6.81663C4.29398 6.42289 4.6731 6.08088 5.09763 5.80263L6.67563 7.38063C6.35719 7.58022 6.08785 7.84903 5.88764 8.16707C5.68742 8.48511 5.56149 8.8442 5.5192 9.21763C5.47691 9.59106 5.51936 9.96921 5.64338 10.324C5.7674 10.6787 5.96981 11.001 6.23555 11.2667C6.5013 11.5325 6.82353 11.7349 7.17829 11.8589C7.53305 11.9829 7.91121 12.0254 8.28463 11.9831C8.65806 11.9408 9.01715 11.8148 9.33519 11.6146C9.65323 11.4144 9.92205 11.1451 10.1216 10.8266M6.32163 4.19863L7.17563 5.05263C7.44926 5.01787 7.72481 5.0005 8.00063 5.00063C10.0446 5.00063 11.2866 5.91263 12.0286 6.81763C12.4362 7.31805 12.7558 7.88412 12.9736 8.49163C12.9906 8.53963 13.0016 8.57663 13.0086 8.60063L13.0166 8.62563V8.62863L13.0176 8.62963C13.0546 8.75443 13.1388 8.85988 13.2524 8.92357C13.3659 8.98726 13.4998 9.00417 13.6256 8.9707C13.7513 8.93723 13.8591 8.85603 13.926 8.74435C13.9929 8.63267 14.0135 8.49932 13.9836 8.37263V8.36963L13.9826 8.36563L13.9786 8.35263C13.9613 8.28947 13.9413 8.22708 13.9186 8.16563C13.662 7.44612 13.2842 6.77579 12.8016 6.18363C11.9056 5.08963 10.3966 4.00063 8.00263 4.00063C7.38463 4.00063 6.82563 4.07163 6.32163 4.19863Z"
    fill="currentColor" />
</svg>