<svg viewBox="0 0 13 16" fill="none" xmlns="http://www.w3.org/2000/svg">
  <path id="Ellipse 78 (Stroke)" fill-rule="evenodd" clip-rule="evenodd"
    d="M6 7C7.65685 7 9 5.65685 9 4C9 2.34315 7.65685 1 6 1C4.34315 1 3 2.34315 3 4C3 5.65685 4.34315 7 6 7ZM6 8C8.20914 8 10 6.20914 10 4C10 1.79086 8.20914 0 6 0C3.79086 0 2 1.79086 2 4C2 6.20914 3.79086 8 6 8Z"
    fill="currentColor" />
  <path id="Ellipse 79 (Stroke)" fill-rule="evenodd" clip-rule="evenodd"
    d="M5.99999 10C4.67391 10 3.40214 10.5268 2.46446 11.4645C1.52678 12.4022 1 13.6739 1 15C1 15.2761 0.776142 15.5 0.5 15.5C0.223858 15.5 0 15.2761 0 15C0 13.4087 0.63214 11.8826 1.75736 10.7574C2.88257 9.63215 4.40869 9 5.99999 9C6.27613 9 6.49999 9.22386 6.49999 9.5C6.49999 9.77614 6.27613 10 5.99999 10Z"
    fill="currentColor" />
  <path id="Vector" fill-rule="evenodd" clip-rule="evenodd"
    d="M9.10596 9.69991H9.89266C9.91872 9.69991 9.94372 9.70974 9.96215 9.72724C9.98058 9.74474 9.99094 9.76848 9.99094 9.79323C9.99094 10.6368 10.9531 11.1646 11.7226 10.7423C11.745 10.7302 11.7716 10.7271 11.7965 10.7334C11.8214 10.7398 11.8427 10.7552 11.8557 10.7764L12.2498 11.424C12.2627 11.4454 12.2661 11.4707 12.2594 11.4945C12.2527 11.5183 12.2363 11.5385 12.214 11.5509C11.4444 11.9727 11.4444 13.0273 12.214 13.4495C12.2362 13.4619 12.2525 13.4821 12.2592 13.5058C12.2659 13.5294 12.2625 13.5547 12.2498 13.576L11.8557 14.2236C11.8427 14.2448 11.8214 14.2602 11.7965 14.2666C11.7716 14.2729 11.745 14.2698 11.7226 14.2577C10.9531 13.8354 9.99094 14.3627 9.99094 15.2058C9.99094 15.2305 9.98065 15.2542 9.96233 15.2717C9.944 15.2892 9.91913 15.299 9.89315 15.2992H9.10645C9.08038 15.2992 9.05539 15.2893 9.03696 15.2718C9.01853 15.2543 9.00817 15.2306 9.00817 15.2058C9.00817 14.3622 8.04604 13.835 7.27654 14.2568C7.25403 14.269 7.22736 14.2722 7.20233 14.2659C7.17729 14.2595 7.15593 14.244 7.14288 14.2227L6.74978 13.5751C6.73704 13.5538 6.7336 13.5286 6.74022 13.505C6.74684 13.4813 6.76298 13.4611 6.78516 13.4486C7.55466 13.0263 7.55466 11.9718 6.78516 11.5495C6.76302 11.5371 6.74688 11.517 6.74017 11.4935C6.73347 11.4699 6.73674 11.4448 6.74929 11.4235L7.14288 10.7754C7.15601 10.7542 7.17741 10.7388 7.20244 10.7325C7.22746 10.7262 7.25409 10.7296 7.27654 10.7418C8.04604 11.1641 9.00817 10.6364 9.00817 9.79276C9.00817 9.74143 9.0519 9.69991 9.10596 9.69991ZM8.2711 9.79323C8.2711 9.35462 8.64455 9 9.10596 9H9.89266C10.3546 9 10.728 9.35462 10.728 9.79323C10.7282 9.86274 10.7475 9.93099 10.7842 9.99114C10.8209 10.0513 10.8736 10.1012 10.937 10.136C11.0004 10.1707 11.0723 10.189 11.1455 10.189C11.2187 10.1891 11.2906 10.1709 11.354 10.1362C11.5458 10.0313 11.7735 10.003 11.9873 10.0574C12.201 10.1118 12.3832 10.2445 12.494 10.4264L12.8881 11.0741C13.1186 11.4534 12.9815 11.9377 12.5825 12.1566C12.519 12.1914 12.4663 12.2415 12.4297 12.3017C12.393 12.362 12.3738 12.4304 12.3738 12.5C12.3738 12.5696 12.393 12.638 12.4297 12.6983C12.4663 12.7585 12.519 12.8086 12.5825 12.8434C12.774 12.9486 12.9138 13.1217 12.9711 13.3247C13.0284 13.5276 12.9986 13.7439 12.8881 13.9259L12.494 14.5736C12.3832 14.7555 12.201 14.8882 11.9873 14.9426C11.7735 14.997 11.5458 14.9687 11.354 14.8638C11.2906 14.8291 11.2187 14.8109 11.1455 14.811C11.0723 14.811 11.0004 14.8293 10.937 14.864C10.8736 14.8988 10.8209 14.9487 10.7842 15.0089C10.7475 15.069 10.7282 15.1373 10.728 15.2068C10.728 15.6449 10.3546 16 9.89315 16H9.10645C8.88498 15.9999 8.67264 15.9162 8.51608 15.7675C8.35953 15.6188 8.27159 15.4171 8.27159 15.2068C8.27144 15.1373 8.25206 15.069 8.21539 15.0089C8.17872 14.9487 8.12604 14.8988 8.06264 14.864C7.99923 14.8293 7.92733 14.811 7.85413 14.811C7.78093 14.8109 7.70901 14.8291 7.64557 14.8638C7.45381 14.9687 7.22608 14.997 7.01235 14.9426C6.79861 14.8882 6.61635 14.7555 6.50556 14.5736L6.11147 13.9259C6.00104 13.7439 5.97119 13.5276 6.0285 13.3247C6.0858 13.1217 6.22556 12.9486 6.41711 12.8434C6.48046 12.8086 6.53305 12.7585 6.56962 12.6983C6.60618 12.6381 6.62542 12.5698 6.62542 12.5002C6.62542 12.4307 6.60618 12.3624 6.56962 12.3022C6.53305 12.2419 6.48046 12.1919 6.41711 12.157C6.22556 12.0518 6.0858 11.8788 6.0285 11.6758C5.97119 11.4729 6.00104 11.2566 6.11147 11.0745L6.50507 10.4264C6.61586 10.2445 6.79812 10.1118 7.01186 10.0574C7.22559 10.003 7.45332 10.0313 7.64508 10.1362C7.70852 10.1709 7.78044 10.1891 7.85364 10.189C7.92684 10.189 7.99874 10.1707 8.06214 10.136C8.12555 10.1012 8.17823 10.0513 8.2149 9.99114C8.25157 9.93099 8.27095 9.86274 8.2711 9.79323ZM10.2366 12.4995C10.2366 12.6852 10.159 12.8632 10.0207 12.9944C9.88252 13.1257 9.69504 13.1994 9.49955 13.1994C9.30407 13.1994 9.11659 13.1257 8.97836 12.9944C8.84014 12.8632 8.76248 12.6852 8.76248 12.4995C8.76248 12.3139 8.84014 12.1359 8.97836 12.0046C9.11659 11.8734 9.30407 11.7996 9.49955 11.7996C9.69504 11.7996 9.88252 11.8734 10.0207 12.0046C10.159 12.1359 10.2366 12.3139 10.2366 12.4995ZM10.9737 12.4995C10.9737 12.8708 10.8184 13.2268 10.5419 13.4894C10.2655 13.7519 9.89052 13.8993 9.49955 13.8993C9.10859 13.8993 8.73363 13.7519 8.45717 13.4894C8.18072 13.2268 8.02541 12.8708 8.02541 12.4995C8.02541 12.1283 8.18072 11.7722 8.45717 11.5097C8.73363 11.2472 9.10859 11.0997 9.49955 11.0997C9.89052 11.0997 10.2655 11.2472 10.5419 11.5097C10.8184 11.7722 10.9737 12.1283 10.9737 12.4995Z"
    fill="currentColor" />
</svg>