<svg xmlns="http://www.w3.org/2000/svg" width="26" height="26" viewBox="0 0 26 26" fill="none">
  <path fill-rule="evenodd" clip-rule="evenodd" d="M12.9969 14.9498C14.376 14.9498 15.6986 14.402 16.6738 13.4268C17.649 12.4516 18.1969 11.1289 18.1969 9.74981C18.1969 8.37068 17.649 7.04804 16.6738 6.07285C15.6986 5.09766 14.376 4.5498 12.9969 4.5498C11.6177 4.5498 10.2951 5.09766 9.31992 6.07285C8.34473 7.04804 7.79688 8.37068 7.79688 9.74981C7.79688 11.1289 8.34473 12.4516 9.31992 13.4268C10.2951 14.402 11.6177 14.9498 12.9969 14.9498ZM12.9969 13.6498C13.509 13.6498 14.0162 13.5489 14.4893 13.3529C14.9625 13.1569 15.3924 12.8697 15.7546 12.5075C16.1167 12.1454 16.404 11.7154 16.6 11.2423C16.796 10.7691 16.8969 10.262 16.8969 9.74981C16.8969 9.23765 16.796 8.73051 16.6 8.25734C16.404 7.78417 16.1167 7.35424 15.7546 6.99209C15.3924 6.62994 14.9625 6.34267 14.4893 6.14667C14.0162 5.95068 13.509 5.8498 12.9969 5.8498C11.9625 5.8498 10.9706 6.2607 10.2392 6.99209C9.50777 7.72348 9.09688 8.71546 9.09688 9.74981C9.09688 10.7842 9.50777 11.7761 10.2392 12.5075C10.9706 13.2389 11.9625 13.6498 12.9969 13.6498Z" fill="black"/>
  <path fill-rule="evenodd" clip-rule="evenodd" d="M26 13C26 20.1799 20.1799 26 13 26C5.8201 26 0 20.1799 0 13C0 5.8201 5.8201 0 13 0C20.1799 0 26 5.8201 26 13ZM19.2595 22.8865C17.3881 24.0744 15.2166 24.7036 13 24.7C10.7305 24.7035 8.50945 24.0438 6.60985 22.802C6.45385 22.607 6.29525 22.4055 6.13535 22.1975C5.94956 21.9538 5.84927 21.6557 5.85 21.3493C5.85 20.6492 6.3531 20.0623 7.02585 19.9641C11.4751 19.3141 14.5385 19.37 18.9937 19.9868C19.3163 20.0336 19.6111 20.1956 19.8236 20.4427C20.0362 20.6899 20.1521 21.0057 20.15 21.3317C20.15 21.6437 20.0427 21.9466 19.849 22.1832C19.6495 22.4263 19.4526 22.6609 19.2595 22.8865ZM21.4403 21.1029C21.3363 19.8861 20.4126 18.8708 19.1717 18.6992C14.6113 18.0681 11.4237 18.0076 6.838 18.6777C5.59 18.8597 4.67025 19.8841 4.56105 21.1042C2.46501 18.9274 1.29587 16.0219 1.3 13C1.3 6.53835 6.53835 1.3 13 1.3C19.4616 1.3 24.7 6.53835 24.7 13C24.7041 16.0213 23.5355 18.9262 21.4403 21.1029Z" fill="black"/>
</svg>