<svg viewBox="0 0 13 16" fill="none" xmlns="http://www.w3.org/2000/svg">
  <path id="Vector"
    d="M9.92189 9.03346C9.97181 9.01228 10.0282 9.01228 10.0781 9.03346L12.8781 10.2213C12.952 10.2527 13 10.3252 13 10.4055V12.1821C13 13.9325 11.7425 15.5703 10.0454 15.9894C10.0156 15.9968 9.98436 15.9968 9.95459 15.9894C8.25752 15.5703 7 13.9325 7 12.1821V10.4055C7 10.3252 7.04799 10.2527 7.12189 10.2213L9.92189 9.03346ZM10.0783 9.72727C10.0283 9.70599 9.97173 9.70599 9.9217 9.72727L7.78837 10.6349C7.71457 10.6663 7.66667 10.7387 7.66667 10.8189V12.2521C7.66667 13.6087 8.72176 15.0085 9.95089 15.3509C9.98307 15.3598 10.0169 15.3598 10.0491 15.3509C11.2782 15.0085 12.3333 13.6087 12.3333 12.2521V10.8189C12.3333 10.7387 12.2854 10.6663 12.2116 10.6349L10.0783 9.72727ZM11.1333 13.1367C11.2438 13.1367 11.3333 13.2262 11.3333 13.3367V13.6237C11.3333 13.6363 11.3325 13.6489 11.3286 13.6609C11.3104 13.7169 11.2599 13.756 11.1916 13.7703C11.1817 13.7724 11.1716 13.7731 11.1615 13.7731H8.83852C8.82841 13.7731 8.81828 13.7724 8.80839 13.7703C8.74008 13.756 8.68964 13.7169 8.67136 13.6609C8.66746 13.6489 8.66667 13.6363 8.66667 13.6237V13.3367C8.66667 13.2262 8.75621 13.1367 8.86667 13.1367H11.1333ZM11.2007 11.6724C11.3428 11.5367 11.5749 11.6658 11.5346 11.858L11.3666 12.6595C11.3472 12.7522 11.2655 12.8185 11.1709 12.8185H8.82911C8.73446 12.8185 8.65277 12.7522 8.63336 12.6595L8.46543 11.858C8.42515 11.6658 8.65718 11.5367 8.79927 11.6724L9.08524 11.9453C9.16252 12.0191 9.28414 12.0191 9.36143 11.9453L9.8619 11.4676C9.93919 11.3938 10.0608 11.3938 10.1381 11.4676L10.6386 11.9453C10.7159 12.0191 10.8375 12.0191 10.9148 11.9453L11.2007 11.6724Z"
    fill="currentColor" />
  <path id="Ellipse 76 (Stroke)" fill-rule="evenodd" clip-rule="evenodd"
    d="M6 7C7.65685 7 9 5.65685 9 4C9 2.34315 7.65685 1 6 1C4.34315 1 3 2.34315 3 4C3 5.65685 4.34315 7 6 7ZM6 8C8.20914 8 10 6.20914 10 4C10 1.79086 8.20914 0 6 0C3.79086 0 2 1.79086 2 4C2 6.20914 3.79086 8 6 8Z"
    fill="currentColor" />
  <path id="Ellipse 77 (Stroke)" fill-rule="evenodd" clip-rule="evenodd"
    d="M5.99999 10C4.67391 10 3.40214 10.5268 2.46446 11.4645C1.52678 12.4022 1 13.6739 1 15C1 15.2761 0.776142 15.5 0.5 15.5C0.223858 15.5 0 15.2761 0 15C0 13.4087 0.63214 11.8826 1.75736 10.7574C2.88257 9.63215 4.40869 9 5.99999 9C6.27613 9 6.49999 9.22386 6.49999 9.5C6.49999 9.77614 6.27613 10 5.99999 10Z"
    fill="currentColor" />
</svg>