<svg viewBox="0 0 12 16" fill="none" xmlns="http://www.w3.org/2000/svg">
  <path id="Ellipse 78 (Stroke)" fill-rule="evenodd" clip-rule="evenodd"
    d="M6 7C7.65685 7 9 5.65685 9 4C9 2.34315 7.65685 1 6 1C4.34315 1 3 2.34315 3 4C3 5.65685 4.34315 7 6 7ZM6 8C8.20914 8 10 6.20914 10 4C10 1.79086 8.20914 0 6 0C3.79086 0 2 1.79086 2 4C2 6.20914 3.79086 8 6 8Z"
    fill="currentColor" />
  <path id="Ellipse 79 (Stroke)" fill-rule="evenodd" clip-rule="evenodd"
    d="M6 10C5.34339 10 4.69321 10.1293 4.08658 10.3806C3.47996 10.6319 2.92876 11.0002 2.46447 11.4645C2.00017 11.9288 1.63188 12.48 1.3806 13.0866C1.12933 13.6932 1 14.3434 1 15C1 15.2761 0.776142 15.5 0.5 15.5C0.223858 15.5 0 15.2761 0 15C0 14.2121 0.155195 13.4319 0.456723 12.7039C0.758251 11.9759 1.20021 11.3145 1.75736 10.7574C2.31451 10.2002 2.97595 9.75825 3.7039 9.45672C4.43185 9.15519 5.21207 9 6 9C6.78793 9 7.56815 9.15519 8.2961 9.45672C9.02405 9.75825 9.68549 10.2002 10.2426 10.7574C10.7998 11.3145 11.2417 11.9759 11.5433 12.7039C11.8448 13.4319 12 14.2121 12 15C12 15.2761 11.7761 15.5 11.5 15.5C11.2239 15.5 11 15.2761 11 15C11 14.3434 10.8707 13.6932 10.6194 13.0866C10.3681 12.48 9.99983 11.9288 9.53553 11.4645C9.07124 11.0002 8.52005 10.6319 7.91342 10.3806C7.30679 10.1293 6.65661 10 6 10Z"
    fill="currentColor" />
</svg>